<?xml version="1.0" standalone="no"?>
<!DOCTYPE svg PUBLIC "-//W3C//DTD SVG 20010904//EN"
 "http://www.w3.org/TR/2001/REC-SVG-20010904/DTD/svg10.dtd">
<svg version="1.0" xmlns="http://www.w3.org/2000/svg"
 width="150.000000pt" height="150.000000pt" viewBox="0 0 150.000000 150.000000"
 preserveAspectRatio="xMidYMid meet">
<metadata>
Created by potrace 1.10, written by Peter Selinger 2001-2011
</metadata>
<g transform="translate(0.000000,150.000000) scale(0.100000,-0.100000)"
fill="#000000" stroke="none">
<path d="M446 1469 c-31 -25 -36 -82 -9 -111 17 -19 17 -21 0 -50 -31 -54 -13
-128 31 -128 18 0 15 -11 -18 -59 -17 -24 -35 -62 -42 -83 -10 -36 -14 -38
-50 -38 -109 0 -135 -156 -33 -190 20 -7 42 -9 50 -6 8 3 15 0 15 -6 0 -6 9
-31 21 -55 l21 -43 -21 -34 c-24 -38 -27 -56 -8 -56 7 0 21 16 30 35 17 36 17
36 42 18 17 -13 24 -28 25 -51 0 -51 55 -102 109 -102 23 0 41 -5 41 -10 0
-18 64 -50 100 -50 36 0 100 32 100 50 0 5 18 10 41 10 54 0 109 51 109 102 1
23 8 38 25 51 l24 18 30 -59 c16 -32 37 -87 47 -123 18 -67 24 -232 11 -283
l-8 -29 -24 23 c-15 14 -41 24 -70 27 l-46 6 6 56 c7 75 -6 156 -25 156 -9 0
-14 -8 -12 -20 11 -73 4 -176 -18 -245 l-23 -75 -167 0 -166 0 -24 75 c-22 69
-32 198 -19 250 2 8 -3 15 -11 15 -20 0 -32 -82 -24 -157 l6 -58 -40 0 c-29 0
-49 -7 -71 -26 l-30 -25 -8 28 c-12 45 -8 204 6 261 10 39 10 57 3 64 -15 15
-29 -24 -44 -116 l-11 -71 -71 -35 -71 -36 -34 23 c-43 29 -96 31 -111 4 -24
-46 -1 -242 33 -279 26 -28 46 -27 210 8 l108 22 25 -23 c19 -18 37 -24 71
-24 40 0 49 4 78 37 l32 38 162 0 c161 0 161 0 184 -26 49 -57 122 -68 162
-24 15 17 26 19 73 13 44 -5 54 -3 50 8 -2 7 -22 17 -43 21 -21 5 -40 10 -42
11 -1 2 6 31 17 65 11 34 21 84 22 112 3 49 4 51 28 45 14 -4 46 -20 73 -36
26 -16 49 -29 52 -29 2 0 21 11 41 25 20 14 47 25 60 25 22 0 24 -4 24 -47 -1
-77 -19 -187 -35 -202 -12 -12 -24 -13 -67 -4 -52 11 -77 5 -64 -15 3 -6 31
-14 61 -17 96 -12 119 20 131 186 8 104 -2 129 -50 129 -18 0 -48 -10 -67 -23
l-34 -23 -71 36 c-71 34 -72 36 -78 80 -12 86 -40 175 -73 239 l-33 64 20 42
c11 23 20 46 20 52 0 6 11 8 24 6 14 -3 38 3 54 13 90 52 56 184 -47 184 -30
0 -41 4 -41 15 0 19 -36 91 -61 124 -22 28 -24 41 -6 41 43 0 61 79 30 126
-15 24 -15 27 0 54 64 107 -61 172 -194 102 -48 -25 -57 -26 -79 -15 -32 17
-62 16 -85 -1 -16 -11 -25 -10 -73 15 -68 37 -146 40 -186 8z m174 -34 c35
-18 50 -31 50 -45 0 -15 -7 -20 -29 -20 -32 0 -81 -34 -81 -56 0 -20 17 -17
40 6 11 11 31 20 45 20 23 0 25 -4 25 -44 0 -43 -1 -45 -52 -70 -54 -27 -115
-33 -149 -16 -23 13 -26 62 -4 80 8 7 15 25 15 40 0 15 -7 33 -15 40 -21 17
-19 67 3 79 31 19 100 12 152 -14z m411 15 c23 -13 26 -62 4 -80 -8 -7 -15
-25 -15 -40 0 -15 7 -33 15 -40 22 -18 19 -67 -4 -80 -34 -17 -95 -11 -149 16
-51 25 -52 27 -52 70 0 40 2 44 25 44 14 0 34 -9 45 -20 23 -23 40 -26 40 -6
0 22 -49 56 -81 56 -22 0 -29 5 -29 20 0 45 147 89 201 60z m-247 -36 c11 -11
16 -35 16 -83 0 -56 -4 -71 -21 -87 -19 -17 -23 -17 -47 -3 -25 13 -27 20 -30
86 -2 55 1 74 13 87 21 20 49 20 69 0z m-61 -204 c25 -12 32 -12 62 4 41 22
55 15 53 -28 -1 -18 2 -38 6 -44 10 -17 -6 -15 -33 4 -21 15 -24 15 -39 1 -13
-13 -14 -23 -5 -52 13 -41 7 -43 -52 -16 -36 16 -105 81 -105 99 0 8 72 52 80
49 3 -2 18 -9 33 -17z m162 -19 c3 -6 25 -13 50 -17 34 -5 50 -14 70 -40 31
-40 75 -132 75 -156 0 -15 7 -16 49 -11 43 5 50 3 65 -18 39 -57 -4 -127 -71
-114 -30 5 -33 4 -42 -33 -37 -136 -206 -213 -406 -184 -139 19 -229 84 -256
185 -10 37 -12 39 -43 33 -70 -13 -114 66 -65 115 18 18 29 20 65 15 37 -5 44
-3 44 12 0 24 44 116 75 157 40 51 73 51 107 -2 33 -52 102 -93 160 -96 46 -2
52 7 34 62 -7 21 -6 23 10 16 11 -4 30 -8 44 -9 27 -1 30 13 15 67 -7 26 7 39
20 18z m-259 -596 c108 -23 206 -17 322 20 18 6 22 4 22 -13 0 -30 -46 -62
-89 -62 -27 0 -43 -7 -64 -30 -22 -23 -37 -30 -67 -30 -30 0 -45 7 -67 30 -21
23 -37 30 -64 30 -46 0 -89 32 -89 67 0 21 3 23 14 14 7 -6 45 -18 82 -26z
m-300 -284 c-7 -11 11 -123 29 -174 8 -23 13 -42 11 -44 -1 -2 -62 -15 -134
-30 -120 -25 -133 -26 -148 -12 -17 18 -42 203 -31 232 9 24 38 21 82 -9 l38
-25 66 35 c64 34 98 45 87 27z m213 -154 c13 -43 13 -52 1 -75 -35 -61 -109
-49 -142 25 l-21 47 32 28 c27 24 40 29 74 26 40 -3 42 -5 56 -51z m552 25
l32 -28 -21 -47 c-23 -51 -56 -72 -98 -61 -51 13 -64 61 -35 137 9 23 16 27
51 27 29 0 48 -7 71 -28z"/>
<path d="M592 953 c4 -21 33 -25 33 -3 0 8 -8 16 -18 18 -14 3 -18 -1 -15 -15z"/>
<path d="M875 960 c-8 -14 3 -30 21 -30 8 0 14 9 14 20 0 21 -24 28 -35 10z"/>
<path d="M663 828 c-3 -6 4 -20 17 -30 44 -36 96 -36 140 0 37 30 16 43 -30
19 l-40 -22 -40 22 c-27 14 -42 18 -47 11z"/>
</g>
</svg>
